Coordinates
version=1
nRows=27
nColumns=12
inDegrees=yes

Units are S.I. units (second, meters, Newtons, ...)
Angles are in degrees

endheader
time	SC_y	SC_z	SC_x	AC_y	AC_z	AC_x	GH_y	GH_z	GH_yy	EL_x	PS_y
       0.0              -50.02          4.309          83.44          69.26         -8.539         -10.31          41.74           81.2          43.52           6.73          80.76
   0.04714              -50.02          4.309          83.43          69.26         -8.538         -10.31          41.74          81.19           43.5          6.748          80.76
   0.09427              -50.02          4.308          83.42          69.25         -8.536          -10.3          41.74          81.19          43.48          6.767          80.76
    0.1414              -50.01          4.307          83.41          69.25         -8.534          -10.3          41.74          81.19          43.46          6.788          80.76
    0.1885              -50.01          4.306           83.4          69.25         -8.532          -10.3          41.75          81.18          43.44          6.809          80.77
    0.2357              -50.01          4.306          83.39          69.25         -8.529          -10.3          41.75          81.18          43.41          6.833          80.77
    0.2828              -50.01          4.305          83.38          69.25         -8.527          -10.3          41.75          81.17          43.39          6.857          80.77
      0.33               -50.0          4.304          83.37          69.25         -8.524          -10.3          41.76          81.17          43.36          6.884          80.77
    0.3771               -50.0          4.303          83.36          69.25         -8.522          -10.3          41.76          81.17          43.33          6.912          80.77
    0.4242               -50.0          4.302          83.34          69.25         -8.519          -10.3          41.77          81.16          43.29          6.942          80.77
    0.4714              -49.99          4.301          83.33          69.25         -8.515          -10.3          41.77          81.16          43.26          6.975          80.78
    0.5185              -49.99          4.299          83.31          69.25         -8.512          -10.3          41.78          81.15          43.22           7.01          80.78
    0.5656              -49.98          4.298           83.3          69.25         -8.508         -10.29          41.78          81.14          43.18          7.047          80.78
    0.6128              -49.98          4.297          83.28          69.24         -8.504         -10.29          41.79          81.14          43.14          7.088          80.78
    0.6599              -49.98          4.295          83.26          69.24           -8.5         -10.29          41.79          81.13          43.09          7.132          80.78
     0.707              -49.97          4.293          83.24          69.24         -8.495         -10.29           41.8          81.12          43.04           7.18          80.79
    0.7542              -49.96          4.292          83.21          69.24          -8.49         -10.29          41.81          81.11          42.98          7.232          80.79
    0.8013              -49.96           4.29          83.19          69.24         -8.485         -10.28          41.82          81.11          42.92          7.289          80.79
    0.8484              -49.95          4.287          83.16          69.23         -8.479         -10.28          41.82           81.1          42.85          7.351           80.8
    0.8956              -49.94          4.285          83.13          69.23         -8.472         -10.28          41.83          81.09          42.78          7.419           80.8
    0.9427              -49.93          4.283          83.09          69.23         -8.465         -10.28          41.85          81.07           42.7          7.493          80.81
    0.9899              -49.92           4.28          83.06          69.23         -8.457         -10.27          41.86          81.06          42.61          7.575          80.81
     1.037              -49.91          4.276          83.02          69.22         -8.448         -10.27          41.87          81.05          42.51          7.665          80.82
     1.084               -49.9          4.273          82.97          69.22         -8.438         -10.27          41.88          81.03           42.4          7.765          80.82
     1.131              -49.89          4.269          82.92          69.22         -8.427         -10.26           41.9          81.01          42.28          7.877          80.83
     1.178              -49.88          4.265          82.87          69.21         -8.415         -10.26          41.92          80.99          42.15          8.001          80.83
     1.226              -49.86           4.26           82.8          69.21         -8.401         -10.25          41.94          80.97           42.0           8.14          80.84
